<?xml version="1.0" encoding="UTF-8" standalone="no"?>
<!-- Created with Inkscape (http://www.inkscape.org/) -->

<svg
   xmlns:dc="http://purl.org/dc/elements/1.1/"
   xmlns:cc="http://creativecommons.org/ns#"
   xmlns:rdf="http://www.w3.org/1999/02/22-rdf-syntax-ns#"
   xmlns:svg="http://www.w3.org/2000/svg"
   xmlns="http://www.w3.org/2000/svg"
   xmlns:sodipodi="http://sodipodi.sourceforge.net/DTD/sodipodi-0.dtd"
   xmlns:inkscape="http://www.inkscape.org/namespaces/inkscape"
   width="145.93332mm"
   height="23.16667mm"
   viewBox="0 0 145.93332 23.16667"
   version="1.1"
   id="svg8"
   sodipodi:docname="Zeichnung.svg"
   inkscape:version="0.92.3 (2405546, 2018-03-11)">
  <defs
     id="defs2" />
  <sodipodi:namedview
     id="base"
     pagecolor="#ffffff"
     bordercolor="#666666"
     borderopacity="1.0"
     inkscape:pageopacity="0.0"
     inkscape:pageshadow="2"
     inkscape:zoom="1.4"
     inkscape:cx="165.47168"
     inkscape:cy="131.60466"
     inkscape:document-units="mm"
     inkscape:current-layer="layer1"
     showgrid="false"
     inkscape:window-width="3840"
     inkscape:window-height="2103"
     inkscape:window-x="0"
     inkscape:window-y="0"
     inkscape:window-maximized="1"
     fit-margin-left="1"
     fit-margin-right="1"
     fit-margin-bottom="1"
     fit-margin-top="1"
     inkscape:pagecheckerboard="false" />
  <metadata
     id="metadata5">
    <rdf:RDF>
      <cc:Work
         rdf:about="">
        <dc:format>image/svg+xml</dc:format>
        <dc:type
           rdf:resource="http://purl.org/dc/dcmitype/StillImage" />
        <dc:title></dc:title>
      </cc:Work>
    </rdf:RDF>
  </metadata>
  <g
     inkscape:label="Ebene 1"
     inkscape:groupmode="layer"
     id="layer1"
     transform="translate(-38.952464,-145.03336)">
    <g
       id="g1287">
      <g
         id="g1274">
        <path
           style="fill:#ed0000;stroke-width:0.26458332"
           d="M 39.952464,156.6167 V 146.03336 H 63.235797 86.51913 v 2.11667 2.11666 H 65.352463 44.185797 v 2.11667 2.11667 h 6.35 6.35 v 2.11667 2.11666 h -6.35 -6.35 v 2.11667 2.11667 h 8.466667 8.466666 v 2.11666 2.11667 H 50.535797 39.952464 Z"
           id="path1141"
           inkscape:connector-curvature="0" />
        <path
           style="fill:#ed0000;stroke-width:0.26458332"
           d="m 65.352463,162.96669 v -4.23333 h 2.116667 2.116667 v -2.11667 -2.11666 h 2.116666 2.116667 v 2.11666 2.11667 h 2.116666 2.116667 v -2.11667 -2.11666 h 2.116667 2.116666 v 2.11666 2.11667 h 2.116667 2.116667 v 4.23333 4.23334 h -2.116667 -2.116667 v -4.23334 -4.23333 H 80.16913 78.052463 v 2.11667 2.11666 H 75.935796 73.81913 v -2.11666 -2.11667 h -2.116667 -2.116666 v 4.23333 4.23334 H 67.46913 65.352463 Z"
           id="path1139"
           inkscape:connector-curvature="0" />
        <path
           style="fill:#ed0000;stroke-width:0.26458332"
           d="m 94.985792,165.08336 v -2.11667 h -2.116663 -2.116666 v -4.23333 -4.23333 h 2.116666 2.116663 v 4.23333 4.23333 h 6.349998 6.35 v -4.23333 -4.23333 h 2.11667 2.11666 v 4.23333 4.23333 h -2.11666 -2.11667 v 2.11667 2.11667 h -6.35 -6.349998 z"
           id="path1137"
           inkscape:connector-curvature="0" />
      </g>
      <g
         id="g1269">
        <path
           style="fill:#aaaaaa;fill-opacity:1;stroke:none;stroke-width:0.1;stroke-miterlimit:4;stroke-dasharray:none;stroke-opacity:1"
           d="m 120.38579,158.73336 v -8.46667 H 105.56912 90.752463 v -2.11666 -2.11667 h 21.166657 21.16667 v 2.11667 2.11666 h -4.23333 -4.23334 v 8.46667 8.46667 h -2.11666 -2.11667 z"
           id="path1135"
           inkscape:connector-curvature="0" />
        <g
           id="g1261">
          <g
             id="g1163">
            <path
               style="fill:#aaaaaa;fill-opacity:1;stroke-width:0.26458332"
               d="m 141.55246,165.08336 v -2.11667 h -2.11667 -2.11667 v -6.34999 -6.35001 h 2.11667 2.11667 v -2.11666 -2.11667 h 6.35 6.35 v 2.11667 2.11666 h 2.11666 2.11667 v 6.35001 6.34999 h -2.11667 -2.11666 v 2.11667 2.11667 h -6.35 -6.35 z"
               id="path1133"
               inkscape:connector-curvature="0" />
          </g>
          <path
             inkscape:connector-curvature="0"
             id="path1131"
             d="m 154.25246,156.6167 v -6.35001 h -6.35 -6.35 v 6.35001 6.34999 h 6.35 6.35 z"
             style="fill:#ffffff;fill-opacity:1;stroke-width:0.26458332" />
        </g>
        <path
           style="fill:#aaaaaa;fill-opacity:1;stroke-width:0.26458332"
           d="m 162.71912,165.08336 v -2.11667 h 8.46667 8.46666 v -2.11666 -2.11667 h -6.35 -6.34999 v -2.11667 -2.11666 h -2.11667 -2.11667 v -2.11667 -2.11667 h 2.11667 2.11667 v -2.11666 -2.11667 h 8.46666 8.46667 v 2.11667 2.11666 h -8.46667 -8.46666 v 2.11667 2.11667 h 6.34999 6.35 v 2.11666 2.11667 h 2.11667 2.11667 v 2.11667 2.11666 h -2.11667 -2.11667 v 2.11667 2.11667 h -8.46666 -8.46667 z"
           id="path1074"
           inkscape:connector-curvature="0" />
      </g>
    </g>
  </g>
</svg>
